<svg xmlns="http://www.w3.org/2000/svg" width="13.204" height="14" viewBox="0 0 13.204 14">
  <path id="첨부파일" d="M5.189,14.442A4.313,4.313,0,0,1,2.157,7.087L7.88,1.336a3.035,3.035,0,0,1,4.3,0,3.072,3.072,0,0,1,0,4.324L6.453,11.411a1.8,1.8,0,0,1-2.54-2.553L9.2,3.551a.548.548,0,0,1,.778,0,.555.555,0,0,1,0,.782L4.691,9.64a.7.7,0,0,0,.985.989L11.4,4.878a1.961,1.961,0,0,0,0-2.76,1.937,1.937,0,0,0-2.746,0L2.935,7.869A3.2,3.2,0,0,0,7.444,12.4l5.722-5.751a.548.548,0,0,1,.778,0,.555.555,0,0,1,0,.782L8.222,13.182A4.264,4.264,0,0,1,5.189,14.442Z" transform="translate(-0.901 -0.442)" fill="#afafaf"/>
</svg>
