<svg width="16" height="18" viewBox="0 0 16 18" fill="none" xmlns="http://www.w3.org/2000/svg">
<path d="M10.6434 4.83333L5.1551 10.3217C4.99591 10.4754 4.86894 10.6593 4.7816 10.8627C4.69425 11.066 4.64827 11.2847 4.64635 11.506C4.64442 11.7273 4.68659 11.9468 4.77039 12.1516C4.8542 12.3564 4.97795 12.5425 5.13444 12.699C5.29093 12.8555 5.47701 12.9792 5.68184 13.063C5.88667 13.1468 6.10613 13.189 6.32743 13.1871C6.54873 13.1852 6.76743 13.1392 6.97077 13.0518C7.17411 12.9645 7.35802 12.8375 7.51176 12.6783L12.8568 7.18999C13.464 6.56132 13.7999 5.71931 13.7923 4.84532C13.7848 3.97133 13.4342 3.13529 12.8162 2.51727C12.1981 1.89924 11.3621 1.54868 10.4881 1.54108C9.61411 1.53349 8.77211 1.86947 8.14343 2.47666L2.7976 7.96416C1.85984 8.90192 1.33301 10.1738 1.33301 11.5C1.33301 12.8262 1.85984 14.0981 2.7976 15.0358C3.73536 15.9736 5.00724 16.5004 6.33343 16.5004C7.65963 16.5004 8.9315 15.9736 9.86926 15.0358L15.0834 9.83333" stroke="#55A30F" stroke-width="1.25" stroke-linecap="round" stroke-linejoin="round"/>
</svg>
