<svg xmlns="http://www.w3.org/2000/svg" width="18.333" height="18.333" viewBox="0 0 18.333 18.333">
  <g id="Icon_feather-log-out" data-name="Icon feather-log-out" transform="translate(-1.833 -1.833)">
    <path id="패스_19" data-name="패스 19" d="M8.25,20.167H4.583a2.749,2.749,0,0,1-2.75-2.75V4.583a2.749,2.749,0,0,1,2.75-2.75H8.25a.917.917,0,1,1,0,1.833H4.583a.917.917,0,0,0-.917.917V17.417a.917.917,0,0,0,.917.917H8.25a.917.917,0,1,1,0,1.833Z" fill="#444"/>
    <path id="패스_20" data-name="패스 20" d="M14.667,16.5a.917.917,0,0,1-.648-1.565L17.954,11,14.019,7.065a.916.916,0,0,1,1.3-1.3L19.9,10.352a.916.916,0,0,1,0,1.3l-4.583,4.583A.914.914,0,0,1,14.667,16.5Z" fill="#444"/>
    <path id="패스_21" data-name="패스 21" d="M19.25,11.917h-11a.917.917,0,0,1,0-1.833h11a.917.917,0,0,1,0,1.833Z" fill="#444"/>
  </g>
</svg>
