<svg id="CI" xmlns="http://www.w3.org/2000/svg" width="405.656" height="76.565" viewBox="0 0 405.656 76.565">
  <text id="REC_통합관리시스템_" data-name="REC 통합관리시스템 " transform="translate(143.656 67.565)" fill="#444" font-size="28" font-family="SegoeUI-Bold, Segoe UI" font-weight="700"><tspan x="0" y="0">REC</tspan><tspan y="0" font-family="SegoeUI, Segoe UI" font-weight="400"> </tspan><tspan y="0" font-family="MalgunGothic, Malgun Gothic" font-weight="400">통합관리시스템</tspan><tspan y="0" font-family="SegoeUI, Segoe UI" font-weight="400"> </tspan></text>
  <g id="ci-2" data-name="ci" transform="translate(-182.344 -323.841)">
    <g id="그룹_13" data-name="그룹 13" transform="translate(254.04 371.21)">
      <g id="그룹_7" data-name="그룹 7" transform="translate(38.038 0.004)">
        <path id="패스_133" data-name="패스 133" d="M311.379,397.755a11.246,11.246,0,0,1-6.35-1.761l1.6-2.936a8.059,8.059,0,0,0,4.6,1.546c1.574,0,3.358-.643,3.358-2.341,0-2.9-4.935-3.422-7.4-6.189a5.268,5.268,0,0,1-1.324-3.64c0-3.02,2.367-5.628,6.622-5.628a14.3,14.3,0,0,1,5.435,1.1s-.1.3-.262.757c-.354,1.041-1.232,1.91-3.059,1.5a7.722,7.722,0,0,0-1.93-.254c-1.633,0-2.929.7-2.929,2.062,0,3.765,8.783,3.543,8.783,9.863C318.526,395.4,315.39,397.755,311.379,397.755Z" transform="translate(-305.029 -376.805)" fill="#ed6900"/>
      </g>
      <g id="그룹_12" data-name="그룹 12">
        <path id="패스_134" data-name="패스 134" d="M266.277,380.246v17.188H262.5v-20.3h14.285v.665a2.408,2.408,0,0,1-2.549,2.451Z" transform="translate(-262.502 -376.836)" fill="#ed6900"/>
        <rect id="사각형_271" data-name="사각형 271" width="14.243" height="3.117" transform="translate(0 17.482)" fill="#ed6900"/>
        <rect id="사각형_272" data-name="사각형 272" width="10.195" height="3.117" transform="translate(3.408 8.578)" fill="#ed6900"/>
        <g id="그룹_11" data-name="그룹 11" transform="translate(18.671)">
          <g id="그룹_10" data-name="그룹 10">
            <g id="그룹_9" data-name="그룹 9">
              <g id="그룹_8" data-name="그룹 8">
                <path id="패스_135" data-name="패스 135" d="M292.735,393.919c-.809-1.192-1.756-2.6-2.68-3.986-.3-.445-.627-.928-.962-1.419a4.163,4.163,0,0,0-2.046,3.2c0,1.525,1.029,2.823,3.224,2.823A5.58,5.58,0,0,0,292.735,393.919Zm4.617.519c.69.978,1.27,1.787,1.684,2.368-.11.088-.282.215-.423.323a3.119,3.119,0,0,1-1.853.622,2.418,2.418,0,0,1-2.13-1.031c-.033-.054-.073-.108-.119-.182a9.932,9.932,0,0,1-4.774,1.213c-3.988,0-6.36-2.665-6.36-5.781,0-2.965,2.028-4.633,4.051-5.993a9.769,9.769,0,0,1-1.71-4.537c0-2.579,1.767-4.64,5.156-4.64,3.473,0,5.037,2.027,5.037,3.96,0,2.335-1.164,3.7-4.1,5.843.424.609.852,1.2,1.238,1.75.826,1.181,1.655,2.35,2.432,3.452a19.014,19.014,0,0,0,2.157-2.772l2.645,1.528A16.615,16.615,0,0,1,297.353,394.437Zm-7.141-10.293c1.591-1.1,2.409-1.936,2.409-2.93,0-.744-.5-1.483-1.719-1.483a1.632,1.632,0,0,0-1.67,1.74A6.048,6.048,0,0,0,290.211,384.144Z" transform="translate(-283.377 -376.801)" fill="#ed6900"/>
              </g>
            </g>
          </g>
        </g>
      </g>
    </g>
    <g id="그룹_18" data-name="그룹 18" transform="translate(182.344 323.841)">
      <g id="그룹_16" data-name="그룹 16" transform="translate(0 7.67)">
        <g id="그룹_14" data-name="그룹 14" transform="translate(0 30.769)">
          <path id="패스_136" data-name="패스 136" d="M195.24,378.7c-2.437-1.141-4.443-2.058-4.443-3.923,0-1.422,1.146-2.454,3.394-2.454a11.668,11.668,0,0,1,2.2.222,6.918,6.918,0,0,0,1.08.117c1.963,0,3.072-1.173,3.809-3.4l.307-.906a20.324,20.324,0,0,0-7.711-1.543c-6.659,0-10.178,4.275-10.172,8.7a7.523,7.523,0,0,0,1.792,5.135,16.182,16.182,0,0,0,5.308,3.636c2.746,1.344,5.224,2.337,5.224,4.335,0,1.77-1.826,2.78-4.276,2.78a13.357,13.357,0,0,1-6.659-2.151l-2.751,5.164a19.08,19.08,0,0,0,9.87,2.524c6.217-.007,10.931-3.567,10.931-9.051C203.145,382.433,198.772,380.409,195.24,378.7Z" transform="translate(-182.344 -366.816)" fill="#d6001f"/>
          <path id="패스_137" data-name="패스 137" d="M222.474,381.32l11.272-13.828h-8.029l-9,11.931h-.13V367.492h-6.626V396.78h.4c2.859,0,6.266-1.324,6.266-6.109v-6.723h.14l9.164,12.469h8.431Z" transform="translate(-185.259 -366.887)" fill="#d6001f"/>
        </g>
        <g id="그룹_15" data-name="그룹 15" transform="translate(42.052)">
          <path id="패스_138" data-name="패스 138" d="M236.174,332.416c-2.335.435-5.783,2.557-5.78,6.3,0,3.4,2.786,5.462,2.8,9.918a7.875,7.875,0,0,1-3.832,6.855c.809-.07,1.693-.118,2.663-.122a21.191,21.191,0,0,1,3.349.2l10.457-12.841A43.551,43.551,0,0,0,236.174,332.416Z" transform="translate(-229.359 -332.416)" fill="#d6001f"/>
          <path id="패스_139" data-name="패스 139" d="M246.249,368.3c1.315-2.052,1.481-5.318,1.586-8.646.13-3.1.774-5.438,4.927-5.455.924,0,1.8.125,3.384.119a24.385,24.385,0,0,0,12.524-3.5,43.478,43.478,0,0,0-21.556-6.874c-.592,1.684-5.22,14.562-5.574,15.6a16.888,16.888,0,0,1,1.873,2.75A30.243,30.243,0,0,1,246.249,368.3Z" transform="translate(-230.645 -333.633)" fill="#d6001f"/>
        </g>
      </g>
      <g id="그룹_17" data-name="그룹 17" transform="translate(31.434)">
        <path id="패스_140" data-name="패스 140" d="M221.608,355.652c-.519,0-.786-.35-.86-.954s-2.682-24.541-3.071-28.164c-.061-.531-.189-1.5-.189-1.844a.771.771,0,0,1,.786-.848c1.242-.008,8,1.574,15.167,6.6-2.07.584-5.808,2.731-5.786,7.179.014,3.936,2.834,6.1,2.848,10.055C230.525,354.1,223.14,355.652,221.608,355.652Z" transform="translate(-217.488 -323.841)" fill="#ed6900"/>
        <path id="패스_141" data-name="패스 141" d="M247.473,370.922a4.625,4.625,0,0,0,.323.727.718.718,0,0,0,.643.4,1.492,1.492,0,0,0,.6-.156c.552-.255,22.4-10.425,25.694-11.942.47-.233,1.38-.634,1.679-.809a.817.817,0,0,0,.451-.7.834.834,0,0,0-.129-.429,26.893,26.893,0,0,0-6.057-5.359,26.982,26.982,0,0,1-13.7,3.963c-1.595,0-1.959-.1-3.048-.1-3.183.016-3.973,1.375-4.088,4.164-.022.523-.031,1.238-.064,2.012C249.672,365.188,249.377,368.624,247.473,370.922Z" transform="translate(-220.653 -326.883)" fill="#ed6900"/>
      </g>
    </g>
  </g>
</svg>
