<svg xmlns="http://www.w3.org/2000/svg" width="12.593" height="11.663" viewBox="0 0 12.593 11.663">
  <g id="그룹_1" data-name="그룹 1" transform="translate(-1227.995 -500)">
    <path id="Icon_ionic-ios-arrow-back" data-name="Icon ionic-ios-arrow-back" d="M9.51,9.959l1.682-1.681L13.923,5.55a.833.833,0,0,0-1.18-1.177l-5,5a.832.832,0,0,0-.024,1.149l5.02,5.031a.833.833,0,0,0,1.18-1.177Z" transform="translate(1226.42 495.871)" fill="#444"/>
    <path id="Icon_ionic-ios-arrow-back-2" data-name="Icon ionic-ios-arrow-back" d="M9.51,9.959l1.682-1.681L13.923,5.55a.833.833,0,0,0-1.18-1.177l-5,5a.832.832,0,0,0-.024,1.149l5.02,5.031a.833.833,0,0,0,1.18-1.177Z" transform="translate(1220.495 495.871)" fill="#444"/>
  </g>
</svg>
