<svg xmlns="http://www.w3.org/2000/svg" width="18" height="15.5" viewBox="0 0 18 15.5">
    <rect data-name="사각형 274" width="18" height="14" rx="2" transform="translate(0 1.5)" style="fill:#fff"/>
    <path data-name="사각형 274 - 윤곽선" d="M2 1a1 1 0 0 0-1 1v10a1 1 0 0 0 1 1h14a1 1 0 0 0 1-1V2a1 1 0 0 0-1-1H2m0-1h14a2 2 0 0 1 2 2v10a2 2 0 0 1-2 2H2a2 2 0 0 1-2-2V2a2 2 0 0 1 2-2z" transform="translate(0 1.5)" style="fill:#808b98"/>
    <path data-name="선 50" d="M.5 4h-1V0h1z" transform="translate(4.5)" style="fill:#808b98"/>
    <path data-name="선 51" d="M.5 4h-1V0h1z" transform="translate(13.5)" style="fill:#808b98"/>
    <path data-name="사각형 275" transform="translate(4 8.5)" style="fill:#fff" d="M0 0h1v1H0z"/>
    <path data-name="사각형 275 - 윤곽선" d="M0 0h1v1H0z" transform="translate(4 8.5)" style="fill:#808b98"/>
    <path data-name="사각형 282" transform="translate(4 11.5)" style="fill:#fff" d="M0 0h1v1H0z"/>
    <path data-name="사각형 282 - 윤곽선" d="M0 0h1v1H0z" transform="translate(4 11.5)" style="fill:#808b98"/>
    <path data-name="사각형 276" transform="translate(7 8.5)" style="fill:#fff" d="M0 0h1v1H0z"/>
    <path data-name="사각형 276 - 윤곽선" d="M0 0h1v1H0z" transform="translate(7 8.5)" style="fill:#808b98"/>
    <path data-name="사각형 281" transform="translate(7 11.5)" style="fill:#fff" d="M0 0h1v1H0z"/>
    <path data-name="사각형 281 - 윤곽선" d="M0 0h1v1H0z" transform="translate(7 11.5)" style="fill:#808b98"/>
    <path data-name="사각형 277" transform="translate(10 8.5)" style="fill:#fff" d="M0 0h1v1H0z"/>
    <path data-name="사각형 277 - 윤곽선" d="M0 0h1v1H0z" transform="translate(10 8.5)" style="fill:#808b98"/>
    <path data-name="사각형 280" transform="translate(10 11.5)" style="fill:#fff" d="M0 0h1v1H0z"/>
    <path data-name="사각형 280 - 윤곽선" d="M0 0h1v1H0z" transform="translate(10 11.5)" style="fill:#808b98"/>
    <path data-name="사각형 278" transform="translate(13 8.5)" style="fill:#fff" d="M0 0h1v1H0z"/>
    <path data-name="사각형 278 - 윤곽선" d="M0 0h1v1H0z" transform="translate(13 8.5)" style="fill:#808b98"/>
    <path data-name="사각형 279" transform="translate(13 11.5)" style="fill:#fff" d="M0 0h1v1H0z"/>
    <path data-name="사각형 279 - 윤곽선" d="M0 0h1v1H0z" transform="translate(13 11.5)" style="fill:#808b98"/>
    <path data-name="선 52" d="M17 .5H0v-1h17z" transform="translate(.5 6)" style="fill:#808b98"/>
</svg>
