<svg xmlns="http://www.w3.org/2000/svg" width="20.03" height="21.996" viewBox="0 0 20.03 21.996">
  <g id="Icon_feather-bell" data-name="Icon feather-bell" transform="translate(-1.985 -1)">
    <path id="패스_17" data-name="패스 17" d="M21,18H3a1.008,1.008,0,0,1-.975-.717.981.981,0,0,1,.413-1.111A5.074,5.074,0,0,0,3.7,14.5,14.044,14.044,0,0,0,5,8,7,7,0,0,1,19,8a14.044,14.044,0,0,0,1.3,6.5,5.074,5.074,0,0,0,1.262,1.674.981.981,0,0,1,.413,1.111A1.008,1.008,0,0,1,21,18ZM5.149,16h13.7q-.114-.187-.229-.4A15.856,15.856,0,0,1,17,8,5,5,0,0,0,7,8a15.856,15.856,0,0,1-1.622,7.6Q5.264,15.813,5.149,16Z" fill="#999999"/>
    <path id="패스_18" data-name="패스 18" d="M12,23A3.009,3.009,0,0,1,9.4,21.5a1,1,0,0,1,1.73-1,1,1,0,0,0,1.73,0,1,1,0,0,1,1.73,1A3.009,3.009,0,0,1,12,23Z" fill="#999999"/>
  </g>
</svg>
